<?xml version="1.0" encoding="utf-8"?>
<!-- Generator: Adobe Illustrator 24.2.1, SVG Export Plug-In . SVG Version: 6.00 Build 0)  -->
<svg version="1.1" id="Layer_1" xmlns="http://www.w3.org/2000/svg" xmlns:xlink="http://www.w3.org/1999/xlink" x="0px" y="0px"
	 viewBox="0 0 1009.1 417.3" xml:space="preserve">
<style type="text/css">
	.st0{fill:var(--logo-durham-primary);}
	.st1{fill:var(--logo-durham-secondary);}
</style>
<g>
	<path class="st0" d="M838,417.3c9.9,0,16.2-4.9,21.7-18.5l27.4-67.5h-10.4l-21,54.5l-23.8-54.5h-10.8l29.7,65.1
		c-3.9,9.2-7.6,12.3-13.4,12.3c-4.2,0-7.1-0.8-10.2-2.4l-3.3,7.7C828.5,416.2,832.6,417.3,838,417.3 M801.2,397.9
		c4.7,0,8.3-1,11.8-2.8v-8.3c-3.4,1.6-6.2,2.3-9.5,2.3c-6.6,0-11-2.9-11-10.9V340h20.7v-8.6h-20.7v-19.7h-9.7v19.7h-9.1v8.6h9.1
		v39.4C782.8,392.7,790.7,397.9,801.2,397.9 M749.5,396.7h9.7v-65.4h-9.7V396.7z M748.9,317.1H760v-10.8h-11.1V317.1z M709.8,398
		c13,0,23.3-7.2,23.3-19.6v-0.3c0-11.8-10.9-15.7-21-18.7c-8.7-2.7-16.8-5.1-16.8-11.3v-0.2c0-5.4,4.9-9.5,12.6-9.5
		c6.3,0,13.3,2.4,19.3,6.3l4.4-7.3c-6.7-4.4-15.5-7.2-23.5-7.2c-12.9,0-22.3,7.5-22.3,18.7v0.3c0,12,11.4,15.6,21.6,18.5
		c8.6,2.4,16.3,4.9,16.3,11.5v0.2c0,6.3-5.7,10.4-13.5,10.4c-7.7,0-15.6-3-22.6-8.3l-4.9,7C690.1,394.3,700.4,398,709.8,398
		 M639.5,396.7h9.7v-26c0-19.7,11.6-30,25.9-30h0.8v-10.5c-12.4-0.5-21.9,7.3-26.7,18.2v-17.1h-9.7V396.7z M573,360.2
		c1.4-12.6,10-22,21.2-22c12.9,0,19.7,10.1,20.9,22H573z M573,368h51.8c0.1-1.5,0.1-2.5,0.1-3.4c0-19.2-11.1-34.6-30.5-34.6
		c-18.1,0-31.4,15.2-31.4,34.1c0,20.4,14.7,34.1,32.6,34.1c12.4,0,20.4-4.9,26.9-12.3l-6.1-5.4c-5.3,5.6-11.6,9.2-20.6,9.2
		C584.5,389.8,574.4,381.8,573,368 M521.2,397.2h8.6l28.4-65.9h-10.5l-22.1,54.2l-22-54.2h-10.8L521.2,397.2z M469.4,396.7h9.7
		v-65.4h-9.7V396.7z M468.8,317.1h11.1v-10.8h-11.1V317.1z M393.2,396.7h9.7v-37.4c0-12.3,8.3-20.5,19.6-20.5
		c11.5,0,18.1,7.6,18.1,19.7v38.2h9.7v-40.6c0-15.5-9.2-26.2-25-26.2c-11.3,0-18.1,5.7-22.4,12.8v-11.4h-9.7V396.7z M336.8,398.1
		c22.1,0,36.9-13.4,36.9-39.2v-50.7h-10v51.5c0,19.3-10.4,29.2-26.7,29.2c-16.9,0-27.1-10.8-27.1-29.8v-50.8h-10v51.5
		C300,384.7,314.9,398.1,336.8,398.1"/>
	<path class="st0" d="M890.4,270.4v-8h-0.6c-4.2,0-7.9-0.7-11-2.2c-3.1-1.5-4.7-5-4.7-10.6v-40.4c0-5.5,0.7-10.6,2.1-15.3
		c1.4-4.7,3.7-8.5,6.9-11.4c3.2-2.9,7.6-4.3,13.2-4.3c7.4,0,12.6,2.3,15.6,6.9c3,4.6,4.5,11,4.5,19.3v66.1h33.3v-8h-0.6
		c-4.3,0-7.9-0.8-10.6-2.4c-2.7-1.6-4.1-5.4-4.1-11.4v-42c0-5.1,0.7-9.8,2-14.2c1.3-4.3,3.5-7.8,6.6-10.4c3.1-2.6,7.3-3.9,12.6-3.9
		c7.4,0,12.6,2.3,15.6,6.9c3,4.6,4.5,11,4.5,19.3v66.1h33.3v-8h-0.6c-4.3,0-7.9-0.8-10.6-2.4c-2.7-1.6-4.1-5.4-4.1-11.4v-45.2
		c0-13.2-2.8-22.7-8.3-28.6s-13.2-8.9-22.9-8.9c-5.9,0-11.4,1.1-16.6,3.4c-5.2,2.2-9.7,6.9-13.5,14.1H931
		c-2.4-6.4-6.1-10.9-11.1-13.5c-5-2.6-10.5-3.9-16.7-3.9c-5.9,0-11.2,1.1-16,3.4c-4.8,2.2-9.1,6.9-12.9,14.1h-1l-2.5-15.5h-30.1v8
		h0.6c4.2,0,7.7,0.8,10.5,2.3c2.8,1.5,4.2,5.1,4.2,10.7v59.8c0,6-1.4,9.8-4.1,11.4c-2.7,1.6-6.3,2.4-10.6,2.4h-2.5v8H890.4z
		 M757.6,242.6c0-7.5,2.1-13.2,6.2-17.1c4.2-3.9,11.7-6.1,22.5-6.6l12.3-0.6v15.5c0,8.2-2.3,14.7-6.9,19.4
		c-4.6,4.8-10.8,7.2-18.6,7.2C762.8,260.4,757.6,254.5,757.6,242.6 M781.7,269.9c3.5-1.6,6.4-3.8,9-6.5c2.6-2.7,5.2-5.9,7.9-9.5h1.5
		l3.1,16.5h25.9v-8h-0.6c-4.3,0-7.4-1-9.2-2.9c-1.8-1.9-2.7-5.6-2.7-10.9v-49.6c0-12.1-2.9-20.7-8.7-25.7c-5.8-5-14.6-7.5-26.3-7.5
		c-6.4,0-12.2,0.6-17.3,1.8c-5.2,1.2-9.3,3.2-12.5,5.9c-3.1,2.7-4.7,6.3-4.7,10.6c0,4.3,1.4,7.4,4.1,9.3c2.7,1.8,6.8,2.8,12.2,2.8
		c0-4,0.4-7.5,1.2-10.7c0.8-3.2,2.5-5.7,5.1-7.5c2.6-1.8,6.3-2.7,11.1-2.7c5.2,0,9.1,1,11.7,3.1c2.6,2,4.2,4.8,5,8.3
		c0.8,3.5,1.1,7.6,1.1,12.2v11.5l-15.9,0.6c-14.7,0.5-25.6,3.2-32.9,8.1c-7.2,4.9-10.8,12.4-10.8,22.6c0,10.5,2.8,18.2,8.4,23.2
		c5.6,5,12.7,7.5,21.3,7.5C773.9,272.3,778.3,271.5,781.7,269.9 M670.4,270.4v-8h-0.6c-4.2,0-7.9-0.7-11-2.2
		c-3.1-1.5-4.7-5-4.7-10.6v-40.4c0-9.4,1.9-17,5.6-22.6c3.8-5.6,9.6-8.4,17.5-8.4c7.8,0,13.2,2.3,16.4,6.9c3.1,4.6,4.7,11,4.7,19.3
		v66.1h33.3v-8h-0.6c-4.3,0-7.9-0.8-10.6-2.4c-2.7-1.6-4.1-5.4-4.1-11.4v-45.2c0-13.2-2.9-22.7-8.7-28.6c-5.8-5.9-14.2-8.9-25.2-8.9
		c-13,0-22.4,5.8-28.2,17.4h-1c0.2-3.5,0.4-6.4,0.6-9c0.1-2.6,0.2-5,0.2-7.3v-42.1h-35.3v8.1h1.5c4.2,0,7.9,0.8,11,2.3
		c3.1,1.5,4.7,5.1,4.7,10.7v102.7c0,6-1.5,9.8-4.6,11.4c-3.1,1.6-6.8,2.4-11.1,2.4h-1.5v8H670.4z M590.7,270.4v-8h-5.4
		c-4.2,0-7.9-0.7-11-2.2s-4.7-5-4.7-10.6v-30.1c0-3.7,0.3-7.9,1-12.6c0.6-4.7,1.7-9.2,3.1-13.5c1.4-4.3,3.3-7.9,5.7-10.7
		c2.4-2.8,5.4-4.2,9-4.2c3.7,0,6.3,1.2,7.9,3.5c1.5,2.4,2.3,6.2,2.3,11.4c6.4,0,10.9-1.3,13.7-3.8c2.7-2.6,4.1-5.8,4.1-9.8
		c0-4.5-1.7-7.9-5.1-10.3c-3.4-2.4-8.6-3.6-15.6-3.6c-5.6,0-10,1-13.2,2.9c-3.2,1.9-5.7,4.4-7.7,7.6c-1.9,3.1-3.7,6.6-5.4,10.4h-1
		l-3.6-19h-29.5v8h0.6c4.2,0,7.9,0.8,11,2.3c3.1,1.5,4.7,5.1,4.7,10.7v59.8c0,6-1.5,9.8-4.6,11.4c-3.1,1.6-6.8,2.4-11.1,2.4h-0.6v8
		H590.7z M480.8,269c5.2-2.2,9.8-6.9,13.8-14.1h1l2.5,15.5h30.5v-8h-0.6c-4.2,0-7.9-0.7-11-2.2c-3.1-1.5-4.7-5-4.7-10.6v-81.8h-34.3
		v8h0.6c4.3,0,8,0.8,11.1,2.4c3.1,1.6,4.6,5.4,4.6,11.4V229c0,9.3-1.9,16.8-5.7,22.5c-3.8,5.7-10,8.5-18.4,8.5
		c-7.8,0-13.1-2.3-15.9-6.9c-2.8-4.6-4.2-11-4.2-19.3v-66.1h-34.3v8h0.6c4.2,0,7.9,0.8,11,2.3c3.1,1.5,4.7,5.1,4.7,10.7v46
		c0,13.2,2.7,22.7,8.2,28.6s13.3,8.9,23.4,8.9C469.8,272.3,475.5,271.2,480.8,269 M320.6,143.2h16.9c15.1,0,26.4,5.1,34,15.1
		c7.6,10.1,11.4,24.6,11.4,43.5s-3.8,33.4-11.4,43.6c-7.6,10.2-19,15.2-34.2,15.2h-16.7V143.2z M341.7,270.4
		c13.8,0,25.3-2.8,34.6-8.4c9.3-5.6,16.2-13.5,20.9-23.8c4.7-10.2,7-22.3,7-36.4c0-21.7-5.5-38.5-16.5-50.4
		c-11-11.9-26.3-17.8-46-17.8h-58.6v8h2.5c4.2,0,7.9,0.8,11,2.3c3.1,1.5,4.7,5.1,4.7,10.7v93.9c0,6-1.5,9.8-4.6,11.4
		c-3.1,1.6-6.8,2.4-11.1,2.4h-2.5v8H341.7z"/>
</g>
<g>
	<path class="st1" d="M261.8,119.8c2.4-23.1,0.1-69.6-4.5-94.8c-1.1-5.8-4.8-13-14.9-15.4c-25.7-6-59.7-9.3-95.9-9.6
		c-3.1,25.9-5.8,61.9-5.8,102.5l0,15.5l0,0.9l3.9,0.4c1.8,0.2,2.6,1.2,2.8,3c0.3,1.8,0.5,4.1,0.5,4.1S217,125.9,261.8,119.8z"/>
	<path class="st1" d="M122.5,152.3l-3.9-0.4c-1.8-0.2-2.6-1.2-2.8-3c-0.2-1.7-0.5-4.1-0.5-4.1l0,0c-30.7,0-65.4,0.2-110.2,6.3
		c6,34.6,45.6,112.9,109.3,146.4c3.2-25.9,8.1-89.1,8.1-129.7l-0.1-14.6L122.5,152.3L122.5,152.3z"/>
	<path class="st1" d="M147.9,144.8c30.7,0,65.7,0.2,110.5,6.3c-6,34.6-45.6,112.9-109.3,146.4c-3.1-25.9-8.4-89.1-8.4-129.7
		l0.2-14.9l0-0.6l3.7-0.3c1.8-0.2,2.6-1.2,2.8-3C147.6,147.2,147.9,144.8,147.9,144.8L147.9,144.8z"/>
	<g>
		<path class="st1" d="M63.7,74.7c-0.2,0.3-0.1,0.9,0.1,1.1c0.3,0,0.9-0.2,1.3-0.4c0.4-0.2,0.5-0.4,0.9-0.7
			C65.6,74.6,63.7,74.6,63.7,74.7z"/>
		<path class="st1" d="M63,59.3L0.7,119.8c44.5,6.1,83.5,6.6,114.2,6.6h0.6c0,0,0.3-2.1,0.5-4.1c0.2-1.9,1-2.9,2.8-3l3.9-0.4l0-0.1
			L63,59.3z M57.6,77.1c-0.3,1-0.3,2.3,1.1,2.3c1.1,0,3-0.9,3.4-1.1l0.2,0.4c-0.3,0.1-2.8,2.1-4.8,2.1c-1.1,0-1.5-0.7-1.5-1.3
			C56,78.4,56.8,78,57.6,77.1z M77.9,91.6c0,1.1-1.6,1.7-2,2.2c-0.2,0.2-0.3,0.4-0.4,0.7c-0.2-0.7,0.2-1.3,0.2-1.8
			c0-0.6-0.4-0.8-1-0.8c-0.9,0-3.2,2.1-1.8,5.4c-0.1-1.2,0.3-2,0.5-2.2c0.2-0.2,0.4-0.7,0.3-1c0.4,0.8,0.5,1.2,0.5,1.9
			c0,1.4-1,1.7-0.6,2.8c0.1,0.3,0.2,0.5,0.3,0.9c0-0.5,0.1-0.9,0.2-1.3c0.1-0.4,0.6-1,0.7-1.3c0.1-0.3,0.1-0.5,0-0.9
			c0.5,0.6,0.8,1.1,0.8,2c0,1.1-0.5,1.7-0.6,2c-0.1,0.3-0.3,0.6-0.3,1.1c-0.3,2.4-1.5,3.5-3,3.5c-1,0-1.7-0.2-2.3-0.5
			c0,3-3.5,2.8-3.5,4.8c0,0.6,0.4,1.2,0.7,1.6c0.4,0.4,1.8,0.9,2.3,1.6c-0.8,0.1-1.6,0.3-2,0.8c1.2,0.6,1.2,1.3,1.4,2.3
			c-1.2-0.6-1.8-0.3-2.1,0.1c-0.4,0.4-0.2,0.9-0.6,1.5c-0.2-0.5-0.5-0.9-1-0.9c-0.5,0-1.6,0.9-1.6,1.3c0,0.8-0.4,1.2-1.2,1.3
			c-0.6,0.6-0.4,0.9-0.4,1.5c-0.5-0.5-0.6-0.8-0.4-1.6c-0.6-0.2-0.5-0.7-0.3-1.1l-0.2-0.1c-0.3,0.3-0.6,0.7-1.4,0.3
			c-0.3,0.1-0.7,0.6-0.7,1.1c-0.2-1.3,0.2-1.7,0.4-1.9c-0.1-0.3,0.1-0.9,0.6-1.1c0-0.1,0-0.2-0.1-0.3c-0.4,0-0.8-0.2-0.9-0.4
			c-0.4-0.1-1,0.4-1.1,0.7c0-0.7,0.6-1.4,1-1.6c0.5-0.9,1.4-1.1,1.9-0.6c0.3,0.3,1,0.6,1.8,0.6c0.7,0,1.4-0.6,1.6-0.8
			c0.2-0.2,0.2-0.3,0.3-0.5c0.2-0.4,0.5-0.8-0.3-1.7c-0.6-0.7-2.1-2.2-2.1-3.2c0-1.7,0.7-2.7,1.5-3.4c-0.3,0-0.2,0-0.6,0
			c-1.1,0-1.2-0.7-2.3-0.7c-0.8,0-1.3,0.8-1.3,1.5c0,0.7,0.1,0.8,0.4,1.3c0.3,0.6,0.5,1,0.4,1.6c-0.6-0.6-1.6-0.9-2.3-0.2
			c-0.3,0.8-0.5,1.1-1,1.5c0-0.7-1.4-1.8-2.7-0.6c-0.1,0.3-0.2,0.9-1.1,0.9c-0.5,0-0.5-0.1-0.7-0.2c-0.4,0.3-0.7,0.6-0.8,1.1
			c-0.2-0.7,0.1-1.2,0.3-1.5c-0.1-0.3-0.1-1,0.3-1.2c-0.1-0.1-0.1,0-0.2-0.2c-0.5,0.5-1.4,0.5-1.8,0c-0.3,0.1-0.6,0.3-0.9,1
			c-0.1-0.7,0.4-1.5,0.7-1.7c0-0.5,0.7-1,1.5-0.8c0.1-0.1,0-0.1,0.1-0.3c0.1-0.1,0-0.1,0-0.1c-0.2-0.1-0.9-0.1-0.9-1
			c-0.4-0.1-0.8,0-1.1,0.3c0.3-0.7,0.9-1,1.4-1c0.2-0.3,0.7-0.4,1-0.4c0.5,0,0.8,0.2,0.9,0.6c0.5,0.9,1.7,1.2,2.8,1.2
			c0.6,0,1.1-0.4,1.1-1.1c0-0.7-1.1-2.6-1.1-3.5c0-0.9,1.6-2.6,2.6-2.6c3.2,0,4,1.3,4.7,1.3c1,0,1.1-0.2,1.3-0.4
			c-1.5-1.9-2.5-1.8-3.9-2.8c-0.7-0.5-1.1-1.3-1.2-2.1c-0.9,0.2-1.8,1.4-2.2,2.1c-0.2-0.4-0.5-0.6-0.9-0.6c-0.7,0-1.2,0.9-1.6,1.7
			c-0.2-0.9-0.8-1.8-1.8-1.8c-0.6,0-1.2,0.2-1.4,0.6c-0.2,0.4-0.7,0.9-1.6,0.7c-0.3,0.2-0.6,0.3-0.8,1.3c-0.3-1.2,0-1.4,0.2-1.7
			c-0.2-0.8,0.2-1.1,0.3-1.3l-0.1-0.2c-0.5,0.2-1.2,0.1-1.4-0.3c-0.5,0-0.7,0-1.1,0.7c0.1-0.8,0.5-1.4,1-1.6
			c0.2-0.4,0.8-0.6,1.3-0.6c0-0.1,0.1-0.1,0.1-0.2c-0.3-0.2-0.6-0.6-0.5-1.1c-0.4-0.5-0.8-0.2-1.2,0c0.6-0.7,1.4-0.9,1.9-0.6
			c1.1-0.4,1.5,0.1,1.6,0.8c0.1,0.7,1.2,0.8,2.3,0.8c2.5,0,6.4-2.3,6.1-4.1c-0.6-0.1-0.6-0.1-1.1-0.1c-1.3,0-3,1.6-4.3,1.7
			c0.6-0.7,0.2-1.5,0.6-2c-0.7,0-1.4,0.4-2.8,0.3c0.5-0.3,0.8-1.2,0.8-1.6c0-0.3,0-1-1.5-1c-0.1,0-0.5,0.2-0.8,0.2
			c-0.3,0-1.3-0.1-1.3-0.9c-0.5-0.1-0.8,0-1.3,0.4c0.1-0.5,1.1-1.2,1.4-1.2c0.2-0.4,0.6-0.6,0.8-0.6c0-0.2,0,0,0-0.3
			c-0.5-0.1-1.1-0.2-1.1-1.1c-0.4-0.3-0.6-0.4-1.4-0.2c1-0.7,1.3-0.6,1.6-0.5c0.7-0.5,1.3-0.2,1.5,0c0.1-0.1,0.2-0.1,0.2-0.2
			c-0.2-0.5-0.1-1,0.2-1.3c0-0.6-0.3-0.7-0.8-0.9c1.1,0,1.5,0.3,1.9,0.7c0.6,0.1,1,0.6,1,1c0,1-1.1,1.7,1,2.8
			c0.6,0.3,1.6,0.7,2.5,0.9c0.9,0.3,2.1,0.7,2.5,0.7c-0.4-0.6-0.2-1.1-0.8-1.7c0.7,0,1.5,0.2,2.1,0.3c-0.1-0.8,0.1-0.8-0.5-1.3
			c0.5,0.1,1.1,0.1,1.5,0.1c2.4,0.3,2.4-0.9,2.9-2.4c-0.8,0-2.2,0.2-3.5,1.1c0.1-0.4,0-0.8,0-1.2c0-0.7,0.6-0.9,0.8-0.9
			c0.1,0,0.5-0.1,0.7-0.1c0.5,0,1.2-0.6,0.9-1.7c-0.2-0.6-0.6-0.9-1.1-0.8c-0.4,0.1-0.4,0.1-1,0.3c-0.4,0.1-0.5,0.5-0.6,0.9
			c-0.1-0.2-0.2-0.7-0.3-0.9c-0.1-0.2-0.1-0.3-0.3-0.6c0-0.1,0-0.1-0.1-0.3c-0.2-0.6,0.1-1.1,0.6-1.2c0.4-0.1,1.1-0.3,1.5-0.4
			c0.8-0.2,1.1-0.6,1.3-1c0.2-0.5,0.3-0.6,1.1-0.6c0.2,0,1.1,0,1.5,0c1.1,0,2.4-0.9,2-1.9c0.8,0.1,1.1,1.4,0.9,1.9
			c0.4,0,1.6-0.2,1.9-0.5c0,0.9-0.7,1.9-1.2,2.2c0.6,0.1,1.7,0,2-0.3c-0.2,0.7-0.9,2.1-1.3,2.3c1.1,0.4,1.8,0.9,2.3,2.3
			c-0.8-0.3-1.3,0.1-2,0c1.5,1.7,2,4.3,2.4,5c-0.4-0.2-1.2-0.7-1.8-0.9c0.6,1.4-0.3,2.8-0.2,3.6c-0.5-0.3-1.1-0.6-1.3-1
			c-0.2,0.6-0.7,1.7-0.6,3.1c-0.4-0.4-1-0.7-1.3-0.9c-0.5,0.8-0.9,1.3-0.9,3.3c0,2.8,1.3,5.4,1.8,6.4c0.9,1.6,1.1,3,1.2,3.5
			c0.3,1.1,1,1.8,2.1,1.8c1,0,1.8-0.9,1.8-2c0-2-2.4-3.3-2.4-6.8c0-2.3,1.8-3.5,1.8-4.9c0-1.3-1.1-0.5-2-1.1
			c1.1-0.2,1.8-1.5,2.8-1.4c0.9,0.1,1.1,0.5,1.1,1c0.1,0.6-0.3,1.4-0.5,1.6c1-0.9,1.4-2.2,1.4-2.8c0-1-1.4-2.1-1-4
			c0.1-0.3,0-0.2,0.1-0.4c0.4,2.1,3.4,2.7,3.4,4.8c0,2-1.7,1.6-2.7,3C76.7,90.2,77.9,90.4,77.9,91.6z"/>
	</g>
	<g>
		<path class="st1" d="M116.8,0C80.5,0.3,46.4,3.9,20.9,9.6C10.9,11.9,7.1,19.1,6,25C3,41.5-1,74.1,0.2,107.6
			c6.2-5.9,63.2-61.3,63.2-61.3l59.2,59.1C122.6,64.8,120,25.9,116.8,0z M28.6,19.1c-0.3,1-0.3,2.3,1.2,2.3c1.1,0,3-0.9,3.4-1.1
			l0.2,0.4c-0.3,0.1-2.8,2.2-4.9,2.2c-1.1,0-1.5-0.7-1.5-1.3C26.9,20.5,27.8,20.1,28.6,19.1z M49.2,33.9c0,1.1-1.7,1.7-2,2.2
			c-0.2,0.2-0.3,0.4-0.4,0.7C46.7,36.1,47,35.5,47,35c0-0.6-0.4-0.8-1-0.8c-0.9,0-3.2,2.1-1.8,5.5c-0.1-1.2,0.4-2,0.6-2.2
			c0.2-0.2,0.4-0.7,0.3-1c0.5,0.8,0.6,1.2,0.6,1.9c0,1.5-1,1.8-0.6,2.8c0.1,0.3,0.2,0.5,0.3,0.9c0-0.5,0.1-1,0.2-1.3
			c0.1-0.4,0.6-1,0.7-1.3c0.1-0.3,0.1-0.5,0-0.9c0.5,0.6,0.8,1.1,0.8,2c0,1.1-0.5,1.7-0.6,2c-0.1,0.3-0.3,0.6-0.4,1.2
			c-0.3,2.4-1.5,3.5-3.1,3.5c-1,0-1.7-0.2-2.3-0.6c0,3.1-3.5,2.9-3.5,4.9c0,0.6,0.4,1.2,0.8,1.6c0.4,0.4,1.8,0.9,2.3,1.6
			c-0.8,0.1-1.6,0.3-2,0.8c1.3,0.6,1.2,1.3,1.4,2.3c-1.2-0.6-1.8-0.3-2.1,0.1c-0.4,0.4-0.2,0.9-0.6,1.6c-0.2-0.5-0.5-0.9-1.1-0.9
			c-0.5,0-1.6,1-1.7,1.3c0,0.8-0.4,1.2-1.2,1.3c-0.6,0.6-0.4,0.9-0.4,1.5c-0.5-0.5-0.6-0.8-0.4-1.6c-0.6-0.2-0.5-0.7-0.3-1.1
			l-0.2-0.2c-0.3,0.3-0.6,0.7-1.4,0.3c-0.3,0.1-0.7,0.6-0.7,1.1c-0.2-1.3,0.2-1.7,0.4-1.9c-0.1-0.3,0.1-0.9,0.6-1.1
			c0-0.1,0-0.2-0.1-0.3c-0.4,0-0.8-0.2-0.9-0.4c-0.4-0.1-1,0.4-1.1,0.7c0-0.7,0.6-1.4,1-1.6c0.5-1,1.4-1.1,1.9-0.6
			c0.3,0.3,1,0.6,1.8,0.6c0.7,0,1.4-0.6,1.6-0.9c0.2-0.2,0.2-0.3,0.3-0.5c0.2-0.4,0.5-0.8-0.3-1.8c-0.6-0.8-2.1-2.2-2.1-3.3
			c0-1.7,0.8-2.7,1.5-3.4c-0.3,0-0.2,0-0.6,0c-1.1,0-1.2-0.7-2.3-0.7c-0.8,0-1.3,0.8-1.3,1.5c0,0.7,0.1,0.9,0.4,1.3
			c0.3,0.6,0.5,1,0.4,1.6c-0.7-0.6-1.6-0.9-2.3-0.2c-0.3,0.8-0.5,1.1-1,1.5c0-0.7-1.5-1.8-2.7-0.6c-0.1,0.3-0.2,1-1.1,1
			c-0.5,0-0.5-0.1-0.7-0.2c-0.4,0.3-0.7,0.7-0.8,1.1c-0.2-0.7,0.1-1.3,0.3-1.6c-0.1-0.3-0.1-1,0.3-1.2c-0.1-0.1-0.1,0-0.2-0.2
			c-0.5,0.5-1.4,0.5-1.8,0c-0.3,0.1-0.6,0.3-1,1c-0.1-0.7,0.4-1.5,0.7-1.7c0-0.5,0.7-1,1.5-0.8c0.1-0.1,0-0.2,0.1-0.3
			c0.1-0.1,0-0.1,0-0.1c-0.2-0.1-0.9-0.1-0.9-1c-0.4-0.2-0.8,0-1.1,0.3c0.3-0.8,0.9-1,1.4-1c0.2-0.3,0.7-0.4,1-0.4
			c0.5,0,0.9,0.2,1,0.6c0.5,0.9,1.7,1.2,2.9,1.2c0.6,0,1.1-0.4,1.1-1.1c0-0.7-1.1-2.6-1.1-3.5c0-0.9,1.6-2.6,2.7-2.6
			c3.3,0,4,1.4,4.8,1.4c1,0,1.2-0.2,1.3-0.4c-1.5-1.9-2.5-1.9-4-2.9c-0.7-0.5-1.1-1.4-1.2-2.2c-0.9,0.2-1.8,1.4-2.2,2.2
			c-0.2-0.4-0.5-0.6-0.9-0.6c-0.7,0-1.2,0.9-1.6,1.8c-0.2-0.9-0.8-1.8-1.8-1.8c-0.6,0-1.3,0.3-1.4,0.6c-0.2,0.4-0.7,1-1.6,0.7
			c-0.3,0.2-0.6,0.3-0.8,1.3c-0.3-1.2,0-1.4,0.2-1.7c-0.2-0.8,0.2-1.1,0.3-1.3l-0.1-0.2c-0.5,0.2-1.2,0.1-1.4-0.3
			c-0.5,0-0.7,0-1.1,0.7c0.1-0.8,0.5-1.4,1-1.6c0.2-0.5,0.8-0.6,1.3-0.6c0-0.1,0.1-0.1,0.1-0.2c-0.3-0.2-0.6-0.6-0.5-1.1
			c-0.4-0.5-0.8-0.2-1.2,0c0.6-0.7,1.4-0.9,1.9-0.6c1.1-0.4,1.5,0.1,1.6,0.8c0.1,0.7,1.2,0.8,2.4,0.8c2.5,0,6.5-2.3,6.2-4.2
			c-0.6-0.2-0.7-0.1-1.1-0.1c-1.3,0-3,1.7-4.3,1.7c0.7-0.7,0.3-1.5,0.6-2.1c-0.7,0-1.5,0.4-2.8,0.3c0.5-0.3,0.8-1.3,0.8-1.6
			c0-0.3,0-1-1.5-1c-0.1,0-0.5,0.2-0.8,0.2c-0.3,0-1.3-0.1-1.3-0.9c-0.5-0.1-0.8,0-1.4,0.4c0.1-0.5,1.1-1.2,1.4-1.3
			c0.2-0.4,0.6-0.6,0.8-0.6c0-0.2,0,0,0-0.3c-0.5-0.1-1.1-0.3-1.1-1.1c-0.4-0.3-0.6-0.4-1.4-0.2c1-0.7,1.3-0.6,1.7-0.5
			c0.7-0.5,1.3-0.2,1.5,0c0.1-0.1,0.2-0.1,0.2-0.2c-0.2-0.5-0.1-1.1,0.2-1.3c0-0.6-0.3-0.8-0.8-0.9c1.1,0,1.5,0.3,1.9,0.7
			c0.6,0.1,1,0.6,1,1c0,1-1.1,1.8,1,2.8c0.7,0.3,1.6,0.7,2.5,1c0.9,0.3,2.1,0.7,2.6,0.7c-0.4-0.6-0.2-1.1-0.8-1.7
			c0.7,0,1.5,0.2,2.1,0.3c-0.1-0.8,0.1-0.8-0.5-1.3c0.5,0.1,1.1,0.1,1.5,0.1c2.4,0.3,2.4-0.9,2.9-2.5c-0.8,0-2.2,0.3-3.5,1.1
			c0.1-0.5,0-0.8,0-1.2c0-0.7,0.6-0.9,0.8-0.9c0.1,0,0.5-0.1,0.8-0.1c0.5,0,1.3-0.6,0.9-1.8c-0.2-0.6-0.6-0.9-1.1-0.8
			c-0.4,0.1-0.4,0.1-1,0.3c-0.4,0.1-0.5,0.5-0.6,0.9c-0.1-0.2-0.2-0.7-0.3-0.9c-0.1-0.2-0.1-0.3-0.3-0.6c0-0.1,0-0.1-0.1-0.3
			c-0.3-0.6,0.1-1.1,0.7-1.2c0.4-0.1,1.1-0.3,1.5-0.4c0.8-0.3,1.1-0.6,1.3-1c0.2-0.5,0.3-0.6,1.1-0.6c0.2,0,1.1,0,1.5,0
			c1.2,0,2.5-1,2.1-2c0.8,0.1,1.1,1.4,0.9,2c0.4,0,1.6-0.2,1.9-0.5c0,0.9-0.7,2-1.2,2.2c0.6,0.1,1.7,0,2.1-0.3
			c-0.2,0.7-0.9,2.1-1.4,2.3c1.1,0.4,1.8,1,2.3,2.3c-0.8-0.3-1.3,0.1-2,0c1.5,1.7,2,4.4,2.5,5c-0.4-0.2-1.2-0.7-1.8-0.9
			c0.6,1.4-0.3,2.9-0.2,3.6c-0.5-0.3-1.1-0.6-1.3-1c-0.2,0.6-0.8,1.7-0.6,3.2c-0.4-0.4-1-0.7-1.3-0.9c-0.6,0.8-0.9,1.3-0.9,3.4
			c0,2.8,1.3,5.5,1.9,6.6c0.9,1.6,1.1,3,1.2,3.6c0.3,1.1,1.1,1.8,2.1,1.8c1,0,1.9-0.9,1.9-2c0-2-2.5-3.3-2.5-6.9
			c0-2.3,1.8-3.5,1.9-5c0-1.3-1.2-0.5-2.1-1.1c1.2-0.2,1.8-1.5,2.9-1.5c0.9,0.1,1.1,0.5,1.2,1c0.1,0.6-0.3,1.4-0.5,1.6
			c1-0.9,1.5-2.2,1.5-2.9c0-1-1.4-2.1-1-4c0.1-0.3,0-0.2,0.1-0.4c0.4,2.2,3.5,2.7,3.5,4.9c0,2-1.7,1.6-2.7,3
			C48,32.5,49.2,32.7,49.2,33.9z M86.8,15.1c-0.3,1.1-0.3,2.4,1.2,2.4c1.2,0,3.2-1,3.6-1.2l0.2,0.4c-0.3,0.1-3,2.2-5.1,2.3
			c-1.2,0-1.6-0.7-1.6-1.4C85.1,16.5,85.9,16.1,86.8,15.1z M108.3,30.5c0,1.1-1.7,1.8-2.1,2.3c-0.2,0.3-0.3,0.4-0.4,0.7
			c-0.2-0.7,0.2-1.3,0.2-1.9c0-0.6-0.4-0.9-1-0.9c-0.9,0-3.4,2.2-1.9,5.8c-0.1-1.3,0.4-2.1,0.6-2.3c0.2-0.2,0.4-0.7,0.4-1.1
			c0.5,0.9,0.6,1.3,0.6,2c0,1.5-1.1,1.8-0.6,3c0.1,0.3,0.2,0.6,0.4,1c0-0.5,0.1-1,0.2-1.4c0.1-0.4,0.7-1.1,0.7-1.4
			c0.1-0.3,0.1-0.6,0-0.9c0.5,0.6,0.8,1.1,0.8,2.1c0,1.1-0.5,1.8-0.7,2.1c-0.1,0.3-0.3,0.6-0.4,1.2c-0.3,2.5-1.6,3.7-3.2,3.7
			c-1,0-1.8-0.2-2.4-0.6c0,3.2-3.7,3-3.7,5.1c0,0.6,0.4,1.3,0.8,1.7c0.4,0.4,1.9,0.9,2.4,1.7c-0.8,0.1-1.7,0.3-2.1,0.9
			c1.3,0.7,1.3,1.4,1.5,2.4c-1.3-0.6-1.9-0.3-2.2,0.1c-0.4,0.4-0.2,1-0.7,1.6c-0.2-0.5-0.6-0.9-1.1-0.9c-0.6,0-1.7,1-1.7,1.3
			c0,0.9-0.5,1.2-1.3,1.3c-0.6,0.6-0.5,1-0.4,1.6c-0.5-0.5-0.6-0.8-0.4-1.7c-0.6-0.2-0.5-0.7-0.3-1.2L90,57.6
			c-0.3,0.3-0.7,0.7-1.4,0.3c-0.3,0.1-0.7,0.6-0.8,1.2c-0.2-1.3,0.2-1.8,0.4-2c-0.1-0.3,0.1-0.9,0.6-1.2c0-0.1,0-0.2-0.1-0.3
			c-0.4,0-0.8-0.2-1-0.5c-0.4-0.1-1,0.4-1.1,0.7c0-0.7,0.6-1.5,1-1.7c0.5-1,1.5-1.2,2-0.6c0.3,0.3,1.1,0.7,1.9,0.7
			c0.8,0,1.5-0.6,1.7-0.9c0.2-0.3,0.2-0.3,0.3-0.5c0.2-0.4,0.5-0.8-0.3-1.8c-0.6-0.8-2.2-2.3-2.2-3.4c0-1.8,0.8-2.9,1.6-3.6
			c-0.3,0-0.2,0-0.6,0c-1.2,0-1.3-0.7-2.4-0.7c-0.9,0-1.4,0.9-1.4,1.6c0,0.7,0.1,0.9,0.4,1.4c0.4,0.7,0.5,1,0.4,1.7
			c-0.7-0.6-1.6-0.9-2.4-0.2c-0.3,0.9-0.5,1.2-1,1.6c0-0.7-1.5-1.9-2.8-0.6c-0.1,0.3-0.2,1-1.2,1c-0.5,0-0.5-0.1-0.7-0.2
			c-0.4,0.3-0.7,0.7-0.8,1.2c-0.2-0.7,0.1-1.3,0.3-1.6c-0.1-0.3-0.1-1.1,0.3-1.3c-0.1-0.1-0.1,0-0.2-0.2c-0.6,0.5-1.5,0.5-1.9,0
			c-0.3,0.1-0.7,0.3-1,1c-0.1-0.7,0.4-1.6,0.7-1.8c0-0.5,0.8-1,1.5-0.9c0.1-0.1,0-0.2,0.1-0.3c0.1-0.1,0-0.1,0-0.1
			c-0.2-0.1-1-0.2-0.9-1.1c-0.5-0.2-0.9,0.1-1.2,0.3c0.3-0.8,1-1,1.5-1.1c0.2-0.3,0.7-0.4,1-0.4c0.5,0,0.9,0.3,1,0.6
			c0.5,1,1.8,1.3,3,1.3c0.6,0,1.1-0.5,1.1-1.2c0-0.7-1.2-2.7-1.2-3.7c0-0.9,1.7-2.7,2.8-2.7c3.4,0,4.2,1.4,5,1.4
			c1.1,0,1.2-0.2,1.4-0.4c-1.6-2-2.6-1.9-4.2-3c-0.8-0.5-1.2-1.4-1.3-2.3c-1,0.2-1.9,1.5-2.3,2.3c-0.2-0.4-0.5-0.6-0.9-0.6
			c-0.8,0-1.3,1-1.7,1.8c-0.2-1-0.8-1.9-1.9-1.9c-0.6,0-1.3,0.3-1.5,0.7c-0.2,0.4-0.8,1-1.7,0.8c-0.3,0.2-0.6,0.3-0.9,1.3
			c-0.3-1.3,0-1.5,0.2-1.8c-0.2-0.8,0.2-1.1,0.3-1.3l-0.1-0.2c-0.5,0.2-1.2,0.1-1.4-0.3c-0.6,0-0.7,0-1.2,0.8
			c0.1-0.8,0.6-1.5,1.1-1.7c0.2-0.5,0.8-0.7,1.4-0.7c0-0.1,0.1-0.1,0.1-0.2c-0.3-0.2-0.6-0.6-0.6-1.1c-0.4-0.5-0.9-0.2-1.3,0
			c0.7-0.7,1.5-1,2-0.6c1.1-0.4,1.5,0.2,1.7,0.8c0.1,0.7,1.3,0.8,2.5,0.8c2.6,0,6.8-2.4,6.5-4.4c-0.6-0.2-0.7-0.1-1.2-0.1
			c-1.4,0-3.1,1.8-4.5,1.8c0.7-0.8,0.3-1.6,0.6-2.1c-0.8,0-1.5,0.5-3,0.3c0.5-0.3,0.8-1.3,0.8-1.7c0-0.4,0-1.1-1.5-1.1
			c-0.2,0-0.6,0.2-0.9,0.2c-0.4,0-1.4-0.1-1.4-0.9c-0.5-0.1-0.9,0-1.4,0.4c0.1-0.6,1.2-1.3,1.5-1.3c0.2-0.4,0.6-0.6,0.9-0.6
			c0-0.2,0,0,0.1-0.3c-0.5-0.1-1.2-0.3-1.2-1.1c-0.4-0.3-0.6-0.4-1.4-0.2c1-0.8,1.4-0.7,1.7-0.5c0.8-0.6,1.4-0.3,1.6,0
			c0.1-0.1,0.2-0.1,0.2-0.2c-0.2-0.6-0.1-1.1,0.2-1.3c0-0.6-0.3-0.8-0.9-0.9c1.1,0,1.6,0.3,2,0.7c0.7,0.1,1.1,0.7,1.1,1.1
			c0,1.1-1.1,1.8,1.1,3c0.7,0.4,1.7,0.7,2.6,1c1,0.3,2.2,0.7,2.7,0.7c-0.4-0.6-0.2-1.2-0.8-1.8c0.7,0,1.6,0.2,2.2,0.3
			c-0.1-0.9,0.1-0.9-0.5-1.4c0.5,0.1,1.2,0.1,1.6,0.1c2.5,0.3,2.6-1,3-2.6c-0.9,0-2.3,0.3-3.7,1.2c0.1-0.5,0-0.9,0-1.3
			c0-0.8,0.6-0.9,0.9-0.9c0.1,0,0.5-0.1,0.8-0.1c0.6,0,1.3-0.6,1-1.9c-0.2-0.6-0.6-1-1.1-0.8c-0.4,0.1-0.5,0.1-1,0.3
			c-0.4,0.2-0.6,0.5-0.6,0.9c-0.1-0.2-0.2-0.8-0.3-0.9c-0.1-0.2-0.1-0.3-0.3-0.6c0-0.1,0-0.1-0.1-0.3c-0.3-0.6,0.2-1.1,0.7-1.2
			c0.4-0.1,1.2-0.3,1.6-0.4c0.9-0.3,1.1-0.6,1.3-1.1c0.2-0.5,0.3-0.7,1.1-0.7c0.3,0,1.2,0,1.6,0c1.2,0,2.6-1,2.1-2
			c0.9,0.2,1.2,1.5,1,2c0.4,0,1.7-0.3,2-0.5c0,0.9-0.7,2-1.2,2.3c0.7,0.1,1.8,0,2.1-0.3c-0.2,0.7-1,2.2-1.4,2.4
			c1.1,0.4,1.9,1,2.4,2.4c-0.9-0.4-1.4,0.1-2.1,0c1.6,1.8,2.1,4.6,2.6,5.3c-0.4-0.2-1.3-0.7-1.9-0.9c0.6,1.5-0.3,3-0.2,3.8
			c-0.5-0.3-1.1-0.6-1.3-1c-0.3,0.6-0.8,1.8-0.6,3.3c-0.4-0.4-1.1-0.7-1.4-1c-0.6,0.8-0.9,1.4-0.9,3.5c0,2.9,1.4,5.7,2,6.8
			c0.9,1.7,1.1,3.2,1.3,3.7c0.3,1.1,1.1,1.9,2.2,1.9c1,0,1.9-1,1.9-2.1c0-2.1-2.6-3.5-2.6-7.2c0-2.4,1.9-3.7,1.9-5.2
			c0-1.4-1.2-0.5-2.2-1.1c1.2-0.2,1.9-1.6,3-1.5c0.9,0.1,1.2,0.6,1.2,1c0.1,0.7-0.4,1.4-0.5,1.7c1.1-0.9,1.5-2.3,1.5-3
			c0-1-1.5-2.2-1.1-4.2c0.1-0.3,0-0.2,0.1-0.4c0.4,2.3,3.6,2.8,3.6,5.1c0,2.1-1.8,1.7-2.9,3.2C107,29,108.3,29.2,108.3,30.5z"/>
		<path class="st1" d="M34.8,16.7c-0.2,0.3-0.1,0.9,0.1,1.1c0.3,0,0.9-0.2,1.3-0.4c0.4-0.3,0.5-0.4,1-0.8
			C36.7,16.6,34.8,16.6,34.8,16.7z"/>
		<path class="st1" d="M93.2,12.6c-0.2,0.3-0.1,0.9,0.1,1.2c0.3,0,1-0.2,1.3-0.5c0.4-0.3,0.5-0.5,1-0.8
			C95.3,12.5,93.3,12.5,93.2,12.6z"/>
	</g>
</g>
</svg>
