<svg viewBox="0 0 123 26" xmlns="http://www.w3.org/2000/svg">
  <title>logo</title>
  <path d="M31.423 25.958H28.69V4.098h2.733v21.86zm62.847 0h-2.733V4.098h2.733v21.86zM88.805 6.83h-6.83V25.96H79.24V6.83h-6.83V4.1h16.395v2.73zm-30.057 0v5.466h6.83v2.733h-6.83v8.196h10.93v2.732H56.015V4.098h13.663v2.733h-10.93zM53.283 4.1v21.858h-2.218L36.888 8.99V25.96h-2.732V4.098h2.214l14.18 16.96V4.1h2.733zM22.037 25.957L20.2 23.76h-.002l-1.765-2.11-3.25-3.89h3.583l1.776 2.124c3.43-3.772 3.55-9.496.286-13.41-3.266-3.915-8.92-4.822-13.245-2.124-4.326 2.697-6 8.172-3.92 12.828 2.077 4.655 7.27 7.064 12.167 5.644l1.877 2.245c-1.506.59-3.11.893-4.728.89C5.82 25.958 0 20.138 0 12.98 0 5.82 5.822 0 12.98 0c7.156 0 12.978 5.822 12.978 12.98.003 3.365-1.307 6.6-3.65 9.015l3.312 3.963h-3.583zm97.002 0l-1.84-2.198-1.764-2.11-3.25-3.89h3.582l1.776 2.124c3.43-3.772 3.552-9.496.286-13.41-3.266-3.915-8.92-4.822-13.245-2.124-4.326 2.697-6 8.172-3.92 12.828 2.078 4.655 7.27 7.064 12.168 5.644l1.876 2.245c-1.507.59-3.11.893-4.73.89-7.155 0-12.978-5.82-12.978-12.978 0-7.158 5.823-12.98 12.98-12.98 7.156 0 12.98 5.822 12.98 12.98 0 3.365-1.31 6.6-3.653 9.015l3.312 3.963h-3.583z" fill-rule="nonzero" fill="var(--logo-qinetiq)"/>
</svg>